<svg width="621" height="354" viewBox="0 0 621 354" fill="none" xmlns="http://www.w3.org/2000/svg">
<g filter="url(#filter0_d_1_25)">
<path fill-rule="evenodd" clip-rule="evenodd" d="M115 16L20 175.5H67.5L79.5 329.5L107.757 269.575H159.274C176.694 269.575 191.741 266.337 204.417 259.862C217.092 253.388 226.84 244.271 233.659 232.512C240.553 220.679 244 206.873 244 191.095C244 175.392 240.627 161.624 233.882 149.79C227.136 137.883 217.537 128.617 205.084 121.993C192.705 115.295 177.991 111.946 160.942 111.946L117.836 111.946L115 16Z" fill="#D9D9D9"/>
<path fill-rule="evenodd" clip-rule="evenodd" d="M104.5 54.5L46 161H86.5V293.5L113 215.5L130.314 161.958H151.911C158.46 161.958 163.978 163.084 168.462 165.335C172.947 167.586 176.34 170.785 178.641 174.933C180.943 179.021 182.093 183.879 182.093 189.507C182.093 195.076 180.943 199.964 178.641 204.17C176.34 208.317 172.947 211.546 168.462 213.856C164.037 216.167 158.519 217.322 151.911 217.322H130.314L120 251.98H160.054C173.921 251.98 185.899 249.403 195.99 244.249C206.08 239.095 213.84 231.837 219.268 222.477C224.756 213.057 227.5 202.067 227.5 189.507C227.5 177.006 224.815 166.046 219.445 156.626C214.076 147.147 206.434 139.771 196.521 134.498C186.666 129.166 174.953 126.5 161.381 126.5H112H104.5V54.5Z" fill="url(#paint0_linear_1_25)"/>
</g>
<path d="M278 227V155.5H294V214H346.3V227H278Z" fill="white"/>
<path d="M356.32 227V155.5H434.72V168.5H372.32V184.3H428.92V197.3H372.32V214H434.72V227H356.32Z" fill="white"/>
<path d="M439.676 227L471.876 155.5H496.576L528.776 227H511.376L504.576 211.9H463.876L457.076 227H439.676ZM469.676 198.9H498.776L484.876 168H483.576L469.676 198.9Z" fill="white"/>
<path d="M536.789 227V155.5H596.689C604.089 155.5 609.822 157.367 613.889 161.1C618.022 164.833 620.089 170.5 620.089 178.1C620.089 185.7 618.022 191.367 613.889 195.1C609.822 198.833 604.089 200.7 596.689 200.7H552.789V227H536.789ZM594.789 168.5H552.789V187.6L594.789 187.7C597.722 187.7 599.956 186.967 601.489 185.5C603.089 184.033 603.889 181.567 603.889 178.1C603.889 174.567 603.089 172.1 601.489 170.7C599.956 169.233 597.722 168.5 594.789 168.5Z" fill="white"/>
<defs>
<filter id="filter0_d_1_25" x="0" y="0" width="264" height="353.5" filterUnits="userSpaceOnUse" color-interpolation-filters="sRGB">
<feFlood flood-opacity="0" result="BackgroundImageFix"/>
<feColorMatrix in="SourceAlpha" type="matrix" values="0 0 0 0 0 0 0 0 0 0 0 0 0 0 0 0 0 0 127 0" result="hardAlpha"/>
<feOffset dy="4"/>
<feGaussianBlur stdDeviation="10"/>
<feComposite in2="hardAlpha" operator="out"/>
<feColorMatrix type="matrix" values="0 0 0 0 0 0 0 0 0 0 0 0 0 0 0 0 0 0 0.15 0"/>
<feBlend mode="normal" in2="BackgroundImageFix" result="effect1_dropShadow_1_25"/>
<feBlend mode="normal" in="SourceGraphic" in2="effect1_dropShadow_1_25" result="shape"/>
</filter>
<linearGradient id="paint0_linear_1_25" x1="137" y1="129" x2="86.5" y2="293.5" gradientUnits="userSpaceOnUse">
<stop stop-color="#BB1B1B"/>
<stop offset="1" stop-color="#7C1F1F"/>
</linearGradient>
</defs>
</svg>
